<svg xmlns="http://www.w3.org/2000/svg" viewBox="0 0 48 48" width="48" height="48">
  <defs>
    <linearGradient id="g" x1="0" y1="0" x2="1" y2="1">
      <stop offset="0" stop-color="#22c55e"/>
      <stop offset="1" stop-color="#15803d"/>
    </linearGradient>
  </defs>
  <rect width="48" height="48" rx="11" fill="url(#g)"/>
  <path fill="#ffffff" d="M35 11c-12 .4-22 7.6-22 19.3 0 1.8.3 3.5 1 5l-2.6 2.6a1.6 1.6 0 0 0 2.2 2.2l2.6-2.6c1.5.6 3.2 1 5 1 11.7 0 18.9-10 19.3-22A4.6 4.6 0 0 0 35 11Z"/>
  <path fill="none" stroke="#15803d" stroke-width="2.1" stroke-linecap="round" d="M31 16.5C23.6 20.7 17.6 28 16 37"/>
</svg>
